<svg width="18" height="14" viewBox="0 0 18 14" fill="none" xmlns="http://www.w3.org/2000/svg">
<mask id="mask0_4673_7443" style="mask-type:luminance" maskUnits="userSpaceOnUse" x="0" y="0" width="16" height="14">
<path d="M15.8687 0.297363H0.972168V13.5233H15.8687V0.297363Z" fill="white" style="fill:white;fill-opacity:1;"/>
</mask>
<g mask="url(#mask0_4673_7443)">
<path d="M12.6995 10.496L10.7404 6.15008C11.6795 5.97507 14.9133 4.65669 15.3965 1.79075C15.4637 1.41411 15.2219 1.18539 14.8464 1.18539H12.7665C12.042 1.18539 11.8675 0.297363 10.9283 0.297363H6.32597C4.82326 1.57546 3.96444 3.59365 3.96444 5.1815C3.96444 5.92161 4.15236 6.58067 4.55476 6.99783L4.31328 7.84557C3.54841 7.69765 2.90429 7.63028 2.39454 7.63028C1.88479 7.63028 0.972168 7.69741 0.972168 8.24907C0.972168 9.16394 3.62899 11.1419 7.61398 12.42C9.96212 13.1735 12.1895 13.5233 13.746 13.5233C14.9403 13.5233 15.732 13.308 15.8527 12.9448C16.0273 12.3931 14.7524 11.4648 12.6995 10.496ZM4.62195 10.1059L5.31962 7.44183C5.49416 7.48212 5.66847 7.5092 5.86978 7.5092C7.3591 7.5092 8.07042 6.13689 8.07042 4.56271C8.07042 3.33832 7.62761 2.00629 6.7958 1.11826H10.6065C11.358 1.11826 11.4921 1.92549 12.1898 1.92549H13.3707C13.2365 2.34265 13.4914 2.93458 14.0549 3.01539C13.7458 3.56008 13.2258 4.0228 12.6352 4.39728C12.0688 4.30019 11.461 4.11606 11.0895 3.71497C10.8748 3.47282 10.5931 3.60732 10.5931 3.94368C10.5931 4.34239 10.8523 4.77393 11.242 5.09039C10.5556 5.35531 9.9124 5.50516 9.50617 5.53129L12.4313 12.3663C10.4991 12.42 6.40656 11.2227 4.62195 10.1059Z" fill="black" style="fill:black;fill-opacity:1;"/>
<path d="M10.2306 2.80048C10.1099 2.62546 10.2039 2.43727 10.338 2.38332C10.4989 2.34304 10.6868 2.3699 10.7002 2.61204L11.2905 2.39675C11.1698 1.72401 10.633 1.48187 10.0561 1.68374C9.57312 1.87217 9.27784 2.39675 9.64007 3.00235L10.2304 2.80048H10.2306Z" fill="black" style="fill:black;fill-opacity:1;"/>
</g>
</svg>
