<svg width="37" height="36" viewBox="0 0 37 36" fill="none" xmlns="http://www.w3.org/2000/svg">
<g clip-path="url(#clip0_2081_2934)">
<rect x="0.5" width="36" height="36" rx="18" fill="black" fill-opacity="0.8" style="fill:black;fill-opacity:0.8;"/>
<g style="mix-blend-mode:soft-light">
<path d="M17.7355 0.134612C17.6019 0.257624 17.4714 0.38308 17.3353 0.502019C15.2744 2.30945 13.2126 4.11661 11.1501 5.9235C9.36347 7.48925 7.57742 9.055 5.79191 10.6208C5.75748 10.6527 5.73371 10.6945 5.72386 10.7405C5.51593 11.8593 5.30962 12.9783 5.10493 14.0977C4.86675 15.3951 4.62884 16.6934 4.39121 17.9925C4.14871 19.3198 3.90568 20.6469 3.6621 21.9737C3.44607 23.1566 3.22869 24.3397 3.00995 25.5231C2.89113 26.1748 2.77259 26.8238 2.65431 27.4701L2.63811 27.5442C2.54899 27.3813 2.47608 27.2445 2.39507 27.1109C2.36579 27.065 2.34597 27.0136 2.33679 26.9599C2.3276 26.9062 2.32924 26.8511 2.3416 26.798C2.58788 25.4783 2.83092 24.158 3.07071 22.8372C3.30079 21.5805 3.53059 20.3238 3.76012 19.067C3.99722 17.775 4.23405 16.483 4.4706 15.1909L5.06118 11.9674C5.25075 10.929 5.43978 9.88975 5.62826 8.84971C5.64161 8.79997 5.6699 8.75559 5.70928 8.72263C7.03031 7.5642 8.35135 6.40659 9.67239 5.24979L13.9984 1.45841C14.3695 1.13256 14.7389 0.806696 15.1124 0.480837C15.158 0.439424 15.214 0.411267 15.2744 0.399372C16.024 0.26324 16.7818 0.177513 17.5427 0.142759C17.5701 0.13922 17.5971 0.133775 17.6237 0.126465L17.7355 0.134612Z" fill="white" fill-opacity="0.43" style="fill:white;fill-opacity:0.43;"/>
<path d="M14.8539 36.3954C14.4245 36.2879 14.0081 36.1812 13.5901 36.0801C13.5221 36.063 13.5131 36.0337 13.5245 35.971C13.9198 33.8219 14.3138 31.6729 14.7065 29.5239C14.8417 28.7817 14.9762 28.0396 15.1164 27.299C15.131 27.2438 15.1625 27.1945 15.2063 27.1581C16.2325 26.2539 17.2618 25.351 18.2945 24.4494L22.4261 20.8307C24.2219 19.2558 26.0176 17.6808 27.8134 16.1058L34.5925 10.1654C34.6071 10.1523 34.6225 10.1418 34.6468 10.1238C34.6662 10.1564 34.6849 10.1841 34.7002 10.2143C35.0669 10.9548 35.3857 11.7184 35.6546 12.5002C35.6686 12.5299 35.6713 12.5638 35.662 12.5954C35.6527 12.6269 35.6322 12.6539 35.6043 12.6712C33.1335 14.8339 30.6637 16.9978 28.195 19.1632L21.9149 24.6686C19.9852 26.3598 18.0555 28.0518 16.1258 29.7446C16.0904 29.7758 16.0657 29.8174 16.0553 29.8636C15.876 30.8286 15.6986 31.7943 15.5231 32.7604L14.9106 36.1087C14.8912 36.1958 14.875 36.2879 14.8539 36.3954Z" fill="white" fill-opacity="0.43" style="fill:white;fill-opacity:0.43;"/>
<path d="M17.1028 36.6952L15.5717 36.5241C15.6057 36.3343 15.6365 36.1632 15.6681 35.9913C15.9111 34.6607 16.1541 33.3301 16.3972 31.9995C16.4952 31.4627 16.5924 30.925 16.6945 30.3882C16.7061 30.3329 16.7344 30.2825 16.7755 30.244C19.1897 28.1259 21.6049 26.0078 24.0212 23.8897L35.8911 13.4834C35.9033 13.4728 35.9162 13.4647 35.9414 13.4451C35.994 13.6447 36.0475 13.8345 36.0945 14.0252C36.2863 14.8052 36.4286 15.5968 36.5206 16.395C36.5302 16.44 36.5269 16.4868 36.5111 16.5301C36.4953 16.5733 36.4677 16.6112 36.4315 16.6394C34.5353 18.2969 32.6393 19.9585 30.7436 21.6242L18.9442 31.9702C18.578 32.2912 18.211 32.6105 17.8473 32.9339C17.8106 32.9683 17.7855 33.0133 17.7752 33.0627C17.5592 34.239 17.3431 35.4156 17.1271 36.5925C17.1214 36.6137 17.1141 36.6414 17.1028 36.6952Z" fill="white" fill-opacity="0.43" style="fill:white;fill-opacity:0.43;"/>
<path d="M12.6577 35.7991L11.4952 35.3665C11.5576 35.0211 11.6175 34.6887 11.6783 34.3563L12.2762 31.0977C12.5268 29.7324 12.7774 28.367 13.0279 27.0017C13.197 26.0784 13.3669 25.1552 13.5375 24.2319C13.5478 24.1825 13.573 24.1376 13.6096 24.1032C15.3114 22.6086 17.0143 21.115 18.7182 19.6226L32.7803 7.29373C32.7949 7.28069 32.8103 7.26848 32.8354 7.24811C33.3218 7.8787 33.7659 8.54111 34.1648 9.23096L19.4392 22.1366C17.7947 23.5785 16.1496 25.0194 14.504 26.4591C14.397 26.5454 14.3254 26.6684 14.3031 26.8045C14.026 28.3475 13.7441 29.8891 13.4573 31.4293C13.2143 32.7561 12.9712 34.0834 12.7282 35.4113C12.7071 35.5351 12.6836 35.6598 12.6577 35.7991Z" fill="white" fill-opacity="0.43" style="fill:white;fill-opacity:0.43;"/>
<path d="M36.5991 17.3253C36.6088 17.5917 36.6201 17.8312 36.6258 18.0707C36.6456 19.018 36.5914 19.9653 36.4638 20.904C36.4468 21.036 36.429 21.168 36.4038 21.2991C36.3939 21.3422 36.371 21.3812 36.3382 21.4108C35.4266 22.2124 34.5141 23.0126 33.6008 23.8115L24.35 31.9213C22.759 33.3117 21.1701 34.7034 19.5833 36.0964C19.5295 36.1423 19.4948 36.2068 19.4861 36.2773C19.4626 36.4215 19.4342 36.564 19.4051 36.7204H17.6763C17.7443 36.3457 17.8091 35.9872 17.8756 35.6239C18.0084 34.8983 18.1434 34.1728 18.2806 33.4472C18.2898 33.4008 18.313 33.3584 18.347 33.3258C20.0175 31.8594 21.6885 30.3931 23.3601 28.9267L36.4646 17.4459L36.5991 17.3253Z" fill="white" fill-opacity="0.43" style="fill:white;fill-opacity:0.43;"/>
<path d="M10.5036 34.9258C10.1885 34.7563 9.88066 34.5917 9.57525 34.4231C9.56301 34.4109 9.55373 34.396 9.54811 34.3797C9.54249 34.3633 9.54069 34.3458 9.54284 34.3286C9.67732 33.5791 9.81585 32.8313 9.95276 32.0834L10.6009 28.5234C10.8293 27.2743 11.0583 26.0238 11.2878 24.772C11.5039 23.5772 11.7221 22.3842 11.9424 21.1932C11.9504 21.1231 11.9838 21.0584 12.0364 21.0116C13.5405 19.6962 15.0441 18.3792 16.5472 17.0605L30.4958 4.84244L30.5768 4.77401L32.1161 6.33406L32.0075 6.43426L18.2233 18.5155C16.387 20.1258 14.5489 21.7358 12.7088 23.3455C12.6504 23.3958 12.6126 23.466 12.6027 23.5427C12.23 25.5896 11.8557 27.6363 11.4798 29.6827L10.5231 34.8785C10.5176 34.8947 10.5112 34.9104 10.5036 34.9258Z" fill="white" fill-opacity="0.43" style="fill:white;fill-opacity:0.43;"/>
<path d="M27.8209 2.72437L29.5302 3.90235L24.4815 8.32833C22.803 9.79904 21.1238 11.2711 19.4442 12.7445L14.7965 16.8178C13.5225 17.9344 12.249 19.0513 10.976 20.1684C10.9297 20.2107 10.8973 20.2661 10.8828 20.3273C10.6706 21.4678 10.461 22.6083 10.2542 23.7488L9.54209 27.6347C9.31309 28.8919 9.08356 30.1487 8.85348 31.4049L8.44275 33.65C8.436 33.676 8.42789 33.7015 8.41845 33.7266C8.15759 33.5417 7.90321 33.3633 7.65126 33.1808C7.64108 33.1683 7.63376 33.1538 7.62984 33.1381C7.62591 33.1225 7.62548 33.1062 7.62858 33.0904C7.7663 32.3224 7.90564 31.5547 8.0466 30.7873C8.21889 29.8467 8.39117 28.9063 8.56346 27.9662C8.76815 26.8502 8.97284 25.7344 9.17753 24.6188C9.39356 23.4354 9.6096 22.252 9.82563 21.0686C10.0087 20.0671 10.1923 19.0662 10.3765 18.0658C10.3898 18.0165 10.4181 17.9726 10.4575 17.9404C11.4297 17.0833 12.4056 16.2277 13.3853 15.3734L27.675 2.85308L27.8209 2.72437Z" fill="white" fill-opacity="0.43" style="fill:white;fill-opacity:0.43;"/>
<path d="M19.8354 36.6724C19.8329 36.6106 19.8447 36.549 19.8697 36.4925C19.8947 36.436 19.9323 36.386 19.9796 36.3465C22.0438 34.5418 24.1061 32.7355 26.1665 30.9275L36.1586 22.1708L36.2712 22.0755C36.2274 22.2784 36.1901 22.4543 36.1513 22.6287C35.6734 24.6709 34.8475 26.6146 33.7104 28.3736C33.6737 28.4308 33.6292 28.4826 33.5783 28.5275C31.6005 30.2655 29.622 32.0001 27.6426 33.7315C27.2051 34.1144 26.7676 34.4967 26.3302 34.8785C26.2659 34.9372 26.1939 34.9868 26.1163 35.026C24.6271 35.7289 23.0475 36.2186 21.4233 36.4809C20.9258 36.5624 20.4228 36.6097 19.9221 36.6716C19.8932 36.6735 19.8643 36.6738 19.8354 36.6724Z" fill="white" fill-opacity="0.43" style="fill:white;fill-opacity:0.43;"/>
<path d="M26.3844 1.96188L10.4598 15.9217C10.0499 16.2812 9.64026 16.641 9.23087 17.0011C9.19815 17.0306 9.17524 17.0696 9.16526 17.1127C8.81528 19.0135 8.46639 20.913 8.11858 22.8112C7.72972 24.9352 7.34113 27.0587 6.95281 29.1817C6.77459 30.1544 6.5969 31.1268 6.41975 32.0989C6.4152 32.1212 6.40952 32.1432 6.40274 32.1649C6.37844 32.147 6.35818 32.1348 6.34117 32.1193C6.17915 31.9743 6.0317 31.822 5.86725 31.6859C5.82773 31.6549 5.79873 31.6123 5.78423 31.564C5.76972 31.5157 5.77042 31.4641 5.78624 31.4163C6.14593 29.472 6.50293 27.5274 6.85722 25.5826C7.17803 23.8338 7.4991 22.0848 7.82045 20.3354C8.07537 18.9408 8.33002 17.5461 8.5844 16.1514C8.65488 15.7645 8.72536 15.3775 8.79908 14.9914C8.80837 14.9512 8.82956 14.9148 8.85984 14.8871C10.8819 13.1128 12.9048 11.3396 14.9285 9.56743L20.3158 4.84247C21.687 3.64114 23.0583 2.43899 24.4296 1.23602C24.4495 1.21381 24.476 1.19865 24.5052 1.19278C24.5344 1.18691 24.5647 1.19065 24.5916 1.20344C25.2019 1.42461 25.8004 1.67778 26.3844 1.96188Z" fill="white" fill-opacity="0.43" style="fill:white;fill-opacity:0.43;"/>
<path d="M4.46016 30.178C4.29814 29.9759 4.15475 29.7943 4.01459 29.6077C3.99509 29.5716 3.98988 29.5294 4.00001 29.4896C4.10371 28.9104 4.21064 28.3312 4.31677 27.7528C4.522 26.6367 4.72642 25.5206 4.93003 24.4046C5.13958 23.2565 5.34967 22.1083 5.56031 20.9602L6.1363 17.8141C6.34045 16.7013 6.54487 15.5879 6.74956 14.474C6.90079 13.6469 7.05147 12.8181 7.20161 11.9877C7.2133 11.9016 7.25631 11.823 7.32232 11.7669C9.16832 10.1523 11.0135 8.53632 12.8579 6.91897L17.0081 3.28075C18.1374 2.29123 19.2668 1.30089 20.3961 0.309731C20.4162 0.287342 20.4415 0.270282 20.4698 0.260054C20.498 0.249825 20.5284 0.246744 20.5581 0.251079C21.211 0.366759 21.864 0.48108 22.517 0.594045C22.5326 0.597823 22.5478 0.603284 22.5623 0.610336C22.5356 0.63559 22.5137 0.658403 22.491 0.678769L11.2619 10.523C10.0252 11.6092 8.78756 12.6926 7.54915 13.7734C7.48487 13.8269 7.44247 13.9023 7.43007 13.9852C7.16435 15.4516 6.89647 16.9161 6.62643 18.3786C6.36395 19.8135 6.10255 21.2484 5.84223 22.6832C5.5225 24.4325 5.20142 26.1816 4.87899 27.9304C4.74667 28.65 4.61516 29.3696 4.48446 30.0892C4.47879 30.112 4.4715 30.1324 4.46016 30.178Z" fill="white" fill-opacity="0.43" style="fill:white;fill-opacity:0.43;"/>
<path d="M1.00655 23.7643C0.947742 23.5942 0.902767 23.4195 0.872073 23.2421C0.858301 23.1077 0.906098 22.9667 0.931212 22.8291C1.19531 21.3839 1.45995 19.9384 1.72513 18.4927C1.98113 17.0991 2.23686 15.705 2.49232 14.3103C2.74777 12.9156 3.00404 11.515 3.26112 10.1083C3.40424 9.3214 3.54871 8.5339 3.69454 7.74587C3.70697 7.68694 3.73184 7.63138 3.76745 7.58294C5.38886 5.36646 7.48573 3.5455 9.9025 2.25514C9.93409 2.23803 9.9665 2.22255 9.99809 2.20708C10.0064 2.20638 10.0148 2.20638 10.0232 2.20708C9.97784 2.24781 9.94219 2.28284 9.90169 2.31624C7.96442 4.01451 6.02715 5.7125 4.08988 7.41023C4.03758 7.45266 4.00268 7.51299 3.99185 7.57968C3.69319 9.22364 3.39209 10.8673 3.08857 12.5107C2.78504 14.1542 2.48475 15.7992 2.18771 17.4459C1.89985 19.0209 1.61117 20.5942 1.32169 22.1659C1.22826 22.6743 1.13536 23.1826 1.04301 23.691C1.03815 23.7154 1.03086 23.7398 1.02519 23.7635L1.00655 23.7643Z" fill="white" fill-opacity="0.43" style="fill:white;fill-opacity:0.43;"/>
<path d="M27.2981 34.3946C29.1808 32.7452 31.0632 31.0953 32.9454 29.4448C31.4374 31.4826 29.5114 33.1706 27.2981 34.3946Z" fill="white" fill-opacity="0.43" style="fill:white;fill-opacity:0.43;"/>
</g>
<path d="M22.444 20.4394C22.444 18.3268 21.1688 17.6024 18.6184 17.3006C16.7967 17.0591 16.4324 16.5763 16.4324 15.7311C16.4324 14.8859 17.0397 14.3428 18.2541 14.3428C19.3471 14.3428 19.9544 14.7049 20.2579 15.6104C20.3187 15.7915 20.5009 15.9122 20.6831 15.9122H21.6545C21.8975 15.9122 22.0796 15.7311 22.0796 15.4897V15.4293C21.8367 14.1013 20.7437 13.0751 19.3471 12.9544V11.5057C19.3471 11.2642 19.1649 11.0831 18.8614 11.0227H17.9505C17.7076 11.0227 17.5254 11.2038 17.4646 11.5057V12.894C15.6429 13.1355 14.4893 14.3428 14.4893 15.8519C14.4893 17.8439 15.7037 18.6285 18.2541 18.9304C19.9544 19.2322 20.5009 19.5944 20.5009 20.5603C20.5009 21.5261 19.6507 22.1901 18.497 22.1901C16.9181 22.1901 16.3716 21.526 16.1894 20.6205C16.1288 20.3792 15.9467 20.2583 15.7645 20.2583H14.7321C14.4893 20.2583 14.3071 20.4394 14.3071 20.6809V20.7414C14.5499 22.2503 15.5215 23.3369 17.5254 23.6388V25.0875C17.5254 25.3289 17.7076 25.51 18.0111 25.5704H18.922C19.1649 25.5704 19.3471 25.3893 19.4079 25.0875V23.6388C21.2296 23.3369 22.444 22.0693 22.444 20.4394Z" fill="white" style="fill:white;fill-opacity:1;"/>
<path d="M15.3546 26.7755C10.6394 25.0795 8.22129 19.8096 9.97448 15.1453C10.8812 12.6012 12.8761 10.6629 15.3546 9.75424C15.5965 9.63314 15.7173 9.45142 15.7173 9.14845V8.30046C15.7173 8.05812 15.5965 7.8764 15.3546 7.81592C15.2941 7.81592 15.1732 7.81592 15.1127 7.87639C9.36991 9.69362 6.22639 15.8117 8.03993 21.5662C9.12806 24.9583 11.7275 27.563 15.1127 28.6534C15.3546 28.7745 15.5965 28.6534 15.6568 28.411C15.7173 28.3505 15.7173 28.2899 15.7173 28.1688V27.3207C15.7173 27.139 15.536 26.8968 15.3546 26.7755ZM21.7625 7.87639C21.5206 7.7553 21.2788 7.87639 21.2184 8.11874C21.1579 8.17936 21.1579 8.23984 21.1579 8.36108V9.20907C21.1579 9.45142 21.3393 9.69362 21.5206 9.81486C26.2359 11.5108 28.654 16.7808 26.9008 21.4451C25.994 23.9892 23.9991 25.9275 21.5206 26.8361C21.2788 26.9572 21.1579 27.139 21.1579 27.4419V28.2899C21.1579 28.5323 21.2788 28.714 21.5206 28.7745C21.5811 28.7745 21.702 28.7745 21.7625 28.714C27.5053 26.8968 30.6489 20.7787 28.8353 15.0242C27.7472 11.5715 25.0872 8.96673 21.7625 7.87639Z" fill="white" style="fill:white;fill-opacity:1;"/>
</g>
<rect x="0.954729" y="0.454729" width="35.0905" height="35.0905" rx="17.5453" stroke="#1682FE" style="stroke:#1682FE;stroke:color(display-p3 0.0863 0.5098 0.9961);stroke-opacity:1;" stroke-width="0.909459"/>
<defs>
<clipPath id="clip0_2081_2934">
<rect x="0.5" width="36" height="36" rx="18" fill="white" style="fill:white;fill-opacity:1;"/>
</clipPath>
</defs>
</svg>
